<svg width="24" height="24" viewBox="0 0 24 24" fill="none" xmlns="http://www.w3.org/2000/svg">
<path d="M21.45 13.6406V14.6406C21.45 14.9106 21.24 15.1306 20.96 15.1406H19.5C18.97 15.1406 18.49 14.7506 18.45 14.2306C18.42 13.9206 18.54 13.6306 18.74 13.4306C18.92 13.2406 19.17 13.1406 19.44 13.1406H20.95C21.24 13.1506 21.45 13.3706 21.45 13.6406Z" fill="#3B81F4"/>
<path d="M17.99 12.6906C17.49 13.1806 17.25 13.9106 17.45 14.6706C17.71 15.6006 18.62 16.1906 19.58 16.1906H20.45C21 16.1906 21.45 16.6406 21.45 17.1906V17.3806C21.45 19.4506 19.76 21.1406 17.69 21.1406H6.21001C4.14001 21.1406 2.45001 19.4506 2.45001 17.3806V10.6506C2.45001 9.42062 3.04001 8.33063 3.95001 7.65063C4.58001 7.17063 5.36001 6.89062 6.21001 6.89062H17.69C19.76 6.89062 21.45 8.58062 21.45 10.6506V11.0906C21.45 11.6406 21 12.0906 20.45 12.0906H19.43C18.87 12.0906 18.36 12.3106 17.99 12.6906Z" fill="#3B81F4"/>
<path d="M16.2 4.82C16.47 5.09 16.24 5.51 15.86 5.51L8.18 5.5C7.74 5.5 7.51 4.96 7.83 4.65L9.45 3.02C10.82 1.66 13.04 1.66 14.41 3.02L16.16 4.79C16.17 4.8 16.19 4.81 16.2 4.82Z" fill="#3B81F4"/>
</svg>
